<svg width="24" height="24" viewBox="0 0 24 24" fill="none" xmlns="http://www.w3.org/2000/svg">
<path fill-rule="evenodd" clip-rule="evenodd" d="M15.3909 13.1304H16.9889V11.6304H15.3909V13.1304ZM11.6559 13.1304H13.2549V11.6304H11.6559V13.1304ZM7.92188 13.1304H9.52088V11.6304H7.92188V13.1304ZM19.3569 5.11944C17.5219 3.28444 15.0809 2.27344 12.4809 2.27344C9.88188 2.27344 7.43888 3.28444 5.60388 5.12044C3.76388 6.95944 2.75188 9.40444 2.75388 12.0034C2.75388 14.6394 4.13787 17.1514 4.63987 17.9754L2.29688 21.7114L3.20988 21.7034C3.26788 21.7034 9.01987 21.6534 12.2699 21.7234C12.3429 21.7244 12.4149 21.7254 12.4869 21.7254C15.0829 21.7254 17.5149 20.7184 19.3569 18.8754C23.1489 15.0824 23.1489 8.91244 19.3569 5.11944Z" fill="#00A1E6"/>
</svg>
